<svg width="100" height="100" viewBox="0 0 100 100" fill="none" xmlns="http://www.w3.org/2000/svg">
<path d="M50 100C22.385 100 0 77.615 0 50C0 22.385 22.385 0 50 0C77.615 0 100 22.385 100 50C100 77.615 77.615 100 50 100ZM43.11 32.075C42.8091 31.8742 42.4593 31.7588 42.098 31.7411C41.7367 31.7234 41.3774 31.804 41.0582 31.9743C40.7391 32.1447 40.4721 32.3984 40.2858 32.7084C40.0994 33.0185 40.0007 33.3733 40 33.735V66.265C40.0007 66.6268 40.0994 66.9816 40.2858 67.2916C40.4721 67.6017 40.7391 67.8554 41.0582 68.0257C41.3774 68.196 41.7367 68.2766 42.098 68.2589C42.4593 68.2412 42.8091 68.1258 43.11 67.925L67.505 51.665C67.7793 51.4824 68.0043 51.2349 68.1599 50.9444C68.3155 50.654 68.397 50.3295 68.397 50C68.397 49.6705 68.3155 49.3461 68.1599 49.0556C68.0043 48.7651 67.7793 48.5176 67.505 48.335L43.105 32.075H43.11Z" fill="white"/>
</svg>
