<svg width="27" height="72" viewBox="0 0 27 72" fill="none" xmlns="http://www.w3.org/2000/svg">
<path opacity="0.2" d="M11.0004 71.0203C11.0116 71.2962 11.2444 71.5108 11.5203 71.4996L16.0166 71.3168C16.2925 71.3056 16.5071 71.0728 16.4959 70.7969C16.4847 70.521 16.2519 70.3064 15.976 70.3176L11.9793 70.4801L11.8168 66.4834C11.8056 66.2075 11.5728 65.9929 11.2969 66.0041C11.021 66.0153 10.8064 66.2481 10.8176 66.524L11.0004 71.0203ZM0.390244 1.4878C2.03778 1.8585 3.69261 2.43135 5.32483 3.19014L5.74639 2.28334C4.05471 1.49691 2.33233 0.899774 0.609756 0.512195L0.390244 1.4878ZM13.9205 9.16954C16.3651 11.5161 18.5777 14.3014 20.4116 17.4376L21.2748 16.9329C19.3947 13.7174 17.1247 10.8591 14.6129 8.44811L13.9205 9.16954ZM24.4579 27.1426C25.3348 30.4306 25.8073 33.9277 25.7746 37.5732L26.7745 37.5822C26.8081 33.844 26.3235 30.2574 25.4242 26.8849L24.4579 27.1426ZM24.315 47.9937C23.4432 51.203 22.159 54.4787 20.403 57.7861L21.2862 58.255C23.0759 54.8841 24.3881 51.5392 25.28 48.2558L24.315 47.9937ZM14.5915 66.6174C13.5255 67.9658 12.3738 69.3145 11.1324 70.6611L11.8676 71.3389C13.1256 69.9743 14.2938 68.6064 15.376 67.2375L14.5915 66.6174Z" fill="white"/>
</svg>
